<?xml version="1.0" encoding="utf-8"?>
<!-- Generator: Adobe Illustrator 17.0.0, SVG Export Plug-In . SVG Version: 6.00 Build 0)  -->
<!DOCTYPE svg PUBLIC "-//W3C//DTD SVG 1.1//EN" "http://www.w3.org/Graphics/SVG/1.1/DTD/svg11.dtd">
<svg version="1.1" id="Layer_1" xmlns="http://www.w3.org/2000/svg" xmlns:xlink="http://www.w3.org/1999/xlink" x="0px" y="0px"
	 width="689px" height="189px" viewBox="0 0 689 189" enable-background="new 0 0 689 189" xml:space="preserve">
<g id="PERFORMANCE">
	<path fill="#0A3161" d="M191.769,113.845h6.313c3.528,0,6.457,1.128,6.457,5.161c0,3.984-2.712,5.208-6.289,5.208h-2.736v6.624
		h-3.745V113.845z M195.514,121.045h2.496c1.32,0,2.64-0.455,2.64-2.039c0-1.752-1.776-1.992-3.216-1.992h-1.92V121.045z"/>
	<path fill="#0A3161" d="M214.233,113.845h11.545v3.456h-7.8v3.169h7.369v3.456h-7.369v3.456h8.233v3.456h-11.977V113.845z"/>
	<path fill="#0A3161" d="M236.409,113.845h6.577c3.48,0,6.409,1.2,6.409,5.161c0,2.375-1.272,4.224-3.672,4.656l4.32,7.176h-4.488
		l-3.552-6.792h-1.848v6.792h-3.745V113.845z M240.153,120.877h2.208c1.368,0,3.144-0.047,3.144-1.896
		c0-1.704-1.536-1.968-2.904-1.968h-2.448V120.877z"/>
	<path fill="#0A3161" d="M259.305,113.845h11.401v3.456h-7.657v3.457h7.081v3.456h-7.081v6.624h-3.745V113.845z"/>
	<path fill="#0A3161" d="M288.85,113.413c5.304,0,9.168,3.479,9.168,8.929c0,5.448-3.864,8.929-9.168,8.929
		c-5.305,0-9.169-3.48-9.169-8.929C279.681,116.893,283.545,113.413,288.85,113.413z M288.85,127.814c3.191,0,5.28-2.305,5.28-5.473
		c0-3.168-2.089-5.473-5.28-5.473c-3.192,0-5.281,2.305-5.281,5.473C283.568,125.51,285.657,127.814,288.85,127.814z"/>
	<path fill="#0A3161" d="M307.76,113.845h6.576c3.48,0,6.408,1.2,6.408,5.161c0,2.375-1.271,4.224-3.672,4.656l4.32,7.176h-4.488
		l-3.553-6.792h-1.848v6.792h-3.744V113.845z M311.504,120.877h2.208c1.368,0,3.145-0.047,3.145-1.896
		c0-1.704-1.536-1.968-2.904-1.968h-2.448V120.877z"/>
	<path fill="#0A3161" d="M330.512,113.845h5.664l3.912,11.089h0.048l3.937-11.089h5.641v16.993h-3.744v-13.033h-0.048l-4.465,13.033
		H338.6l-4.296-13.033h-0.048v13.033h-3.744V113.845z"/>
	<path fill="#0A3161" d="M365.96,113.845h3.097l7.393,16.993h-4.225l-1.464-3.6h-6.6l-1.416,3.6h-4.129L365.96,113.845z
		 M367.4,118.789l-2.065,5.281h4.152L367.4,118.789z"/>
	<path fill="#0A3161" d="M385.352,113.845h5.088l7.225,11.81h0.048v-11.81h3.745v16.993h-4.897l-7.417-12.097h-0.048v12.097h-3.744
		V113.845z"/>
	<path fill="#0A3161" d="M423.224,118.262c-0.744-0.889-1.824-1.393-3.216-1.393c-2.832,0-4.921,2.305-4.921,5.473
		c0,3.168,2.089,5.473,4.801,5.473c1.512,0,2.736-0.672,3.504-1.824l3.12,2.328c-1.416,2.016-3.815,2.952-6.145,2.952
		c-5.304,0-9.168-3.48-9.168-8.929c0-5.449,3.864-8.929,9.168-8.929c1.897,0,4.297,0.647,5.737,2.496L423.224,118.262z"/>
	<path fill="#0A3161" d="M435.895,113.845h11.545v3.456h-7.801v3.169h7.369v3.456h-7.369v3.456h8.233v3.456h-11.978V113.845z"/>
</g>
<g id="SALES">
	<path fill="#0A3161" d="M74.685,117.998c-0.6-0.768-1.8-1.128-2.712-1.128c-1.056,0-2.52,0.479-2.52,1.752
		c0,3.097,7.825,1.104,7.825,7.057c0,3.792-3.048,5.593-6.553,5.593c-2.184,0-4.104-0.648-5.712-2.137l2.664-2.928
		c0.768,1.008,2.016,1.607,3.265,1.607c1.224,0,2.592-0.575,2.592-1.775c0-3.121-7.968-1.44-7.968-7.104
		c0-3.624,3.144-5.521,6.48-5.521c1.92,0,3.768,0.504,5.209,1.775L74.685,117.998z"/>
	<path fill="#0A3161" d="M92.852,113.846h3.096l7.393,16.994h-4.225l-1.464-3.6h-6.601l-1.416,3.6h-4.128L92.852,113.846z
		 M94.292,118.791l-2.064,5.279h4.152L94.292,118.791z"/>
	<path fill="#0A3161" d="M112.387,113.846h3.745v13.537h6.937v3.457h-10.681V113.846z"/>
	<path fill="#0A3161" d="M132.475,113.846h11.545v3.457h-7.8v3.168h7.369v3.456h-7.369v3.456h8.232v3.457h-11.977V113.846z"/>
	<path fill="#0A3161" d="M163.052,117.998c-0.6-0.768-1.8-1.128-2.712-1.128c-1.056,0-2.52,0.479-2.52,1.752
		c0,3.097,7.825,1.104,7.825,7.057c0,3.792-3.048,5.593-6.553,5.593c-2.184,0-4.104-0.648-5.712-2.137l2.664-2.928
		c0.768,1.008,2.016,1.607,3.265,1.607c1.224,0,2.592-0.575,2.592-1.775c0-3.121-7.968-1.44-7.968-7.104
		c0-3.624,3.144-5.521,6.48-5.521c1.92,0,3.768,0.504,5.209,1.775L163.052,117.998z"/>
</g>
<g id="TOP_GUN">
	<path fill="#0A3161" d="M113.54,66.336H87.324v37.789H66.146V66.336H40.086V53.818h73.454V66.336z"/>
	<path fill="#0A3161" d="M190.123,57.676c2.623,2.625,3.936,5.747,3.936,9.369v23.854c0,3.62-1.313,6.746-3.936,9.369
		c-2.573,2.573-5.747,3.856-9.524,3.856h-47.318c-3.727,0-6.876-1.283-9.448-3.856c-2.572-2.571-3.858-5.694-3.858-9.369V67.045
		c0-3.674,1.286-6.797,3.858-9.369c2.571-2.57,5.721-3.857,9.448-3.857h47.318C184.376,53.818,187.55,55.105,190.123,57.676z
		 M174.929,66.336h-35.901v25.273h35.901V66.336z"/>
	<path fill="#0A3161" d="M273.184,57.676c-2.889-2.57-6.379-3.857-10.473-3.857h-60.542v50.307h21.177l0.079-38.183h32.753v8.423
		h-22.934v11.811h29.467c4.146-0.105,7.639-1.418,10.473-3.936c2.938-2.625,4.406-5.722,4.406-9.291v-5.982
		C277.59,63.398,276.121,60.301,273.184,57.676z"/>
	<path fill="#0A3161" d="M344.965,74.832h19.367c0,0,0,25.176,0,29.293c-3.688,0-60.465,0-60.465,0
		c-3.673,0-6.823-1.311-9.448-3.936c-2.571-2.57-3.856-5.748-3.856-9.526V67.045c0-3.674,1.285-6.797,3.856-9.369
		c2.625-2.624,5.775-3.937,9.448-3.937h60.465v12.438h-54.48v25.195h35.113V74.832z"/>
	<path fill="#0A3161" d="M447.075,53.818v37.081c0,3.62,0,8.802,0,13.226c-3.275,0-9.604,0-13.224,0h-47.554
		c-3.78,0-6.98-1.311-9.605-3.936c-2.468-2.465-3.701-5.38-3.701-8.738V53.818h18.975v37.791h35.901V53.818H447.075z"/>
	<path fill="#0A3161" d="M509.98,104.125V66.336h-35.899v37.789h-18.974V53.818h60.855c3.623,0,6.72,1.287,9.291,3.857
		c2.625,2.625,3.938,5.747,3.938,9.369v25.08L509.98,104.125z"/>
</g>
<g id="Chevrons">
	<polygon fill="#0A3161" points="465.925,122.223 545.602,122.223 437.432,164.282 485.724,131.001 	"/>
	<polygon fill="#0A3161" points="538.936,85.936 604.029,85.936 515.663,120.297 555.111,93.107 	"/>
	<polygon fill="#0A3161" points="595.659,53.818 653.289,53.818 575.051,84.239 609.972,60.169 	"/>
	<polygon fill="#0A3161" points="563.393,41.423 606.619,41.423 547.94,64.24 574.132,46.186 	"/>
	<polygon fill="#0A3161" points="535.521,31 568.777,31 523.624,48.558 543.78,34.663 	"/>
</g>
</svg>
